<svg width="400" height="400" viewBox="0 0 400 400" fill="none" xmlns="http://www.w3.org/2000/svg">
  <rect width="400" height="400" fill="#05060a"/>
  <g stroke="#1e3a8a" stroke-width="0.5" opacity="0.35">
    <path d="M0 20h400"/>
    <path d="M0 60h400"/>
    <path d="M0 100h400"/>
    <path d="M0 140h400"/>
    <path d="M0 180h400"/>
    <path d="M0 220h400"/>
    <path d="M0 260h400"/>
    <path d="M0 300h400"/>
    <path d="M0 340h400"/>
    <path d="M0 380h400"/>
    <path d="20 0v400"/>
    <path d="60 0v400"/>
    <path d="100 0v400"/>
    <path d="140 0v400"/>
    <path d="180 0v400"/>
    <path d="220 0v400"/>
    <path d="260 0v400"/>
    <path d="300 0v400"/>
    <path d="340 0v400"/>
    <path d="380 0v400"/>
  </g>
  <circle cx="200" cy="200" r="140" stroke="#00f0ff" stroke-width="1" opacity="0.45"/>
  <circle cx="200" cy="200" r="80" stroke="#74f2ce" stroke-width="1" opacity="0.55"/>
  <path d="M200 60 L320 200 L200 340 L80 200 Z" stroke="#c1925a" stroke-width="1" fill="none" opacity="0.65"/>
</svg>
